<svg width="24" height="24" viewBox="0 0 24 24" fill="none" xmlns="http://www.w3.org/2000/svg">
<path fill-rule="evenodd" clip-rule="evenodd" d="M11.9932 8C11.9932 10.2091 10.2023 12 7.99318 12C5.78404 12 3.99318 10.2091 3.99318 8C3.99318 5.79086 5.78404 4 7.99318 4C10.2023 4 11.9932 5.79086 11.9932 8ZM1.24072 17.4772C2.44987 15.5196 4.43467 14 7.99318 14C11.5517 14 13.537 15.5196 14.7464 17.4773C15.4639 18.6386 14.4775 20 13.1123 20L2.87493 20C1.50981 20 0.523347 18.6386 1.24072 17.4772ZM18.9932 17C18.4409 17 17.9932 16.5523 17.9932 16V14H15.9932C15.4409 14 14.9932 13.5523 14.9932 13C14.9932 12.4477 15.4409 12 15.9932 12H17.9932V10C17.9932 9.44772 18.4409 9 18.9932 9C19.5454 9 19.9932 9.44772 19.9932 10V12H21.9932C22.5454 12 22.9932 12.4477 22.9932 13C22.9932 13.5523 22.5454 14 21.9932 14H19.9932V16C19.9932 16.5523 19.5454 17 18.9932 17Z" fill="#868DF3"/>
</svg>
