<svg width="16" height="16" viewBox="0 0 16 16" fill="none" xmlns="http://www.w3.org/2000/svg">
<path d="M8.5 2V7.5M8.5 7.5H14M8.5 7.5L14.5 1.5" stroke="#19AE1D" stroke-width="1.35"/>
<path d="M3.61076 10.6249C3.86381 10.9506 4.13695 11.2603 4.42858 11.552C4.77146 11.8949 5.13938 12.2118 5.5293 12.5001C6.15416 12.9011 6.88562 13.0096 7.53282 12.9975C7.60748 12.6657 7.77497 12.362 8.01575 12.1218L8.31565 11.8219C8.85374 11.2838 9.72618 11.2838 10.2643 11.8219L12.1812 13.7388C12.5399 14.0976 12.5399 14.6792 12.1812 15.0379L11.852 15.3671C11.3492 15.8699 10.5 16 10.0102 16C8 16 6.15979 15.3872 4.39216 14.0828C4.31979 14.0341 4.24879 13.9833 4.17923 13.9307L4.18345 13.9251C3.78553 13.6173 3.40756 13.2845 3.05182 12.9287C2.70547 12.5824 2.38296 12.2162 2.08637 11.8356L2.08511 11.8365C2.07148 11.8186 2.05858 11.8004 2.04527 11.7824C1.46772 11.0323 0.992413 10.2268 0.645688 9.40177C0.11496 8.13883 -0.000430687 7 -0.000430729 5.68817C-0.000430687 5 0.226771 4.58571 0.648693 4.16378L0.977851 3.83463C1.33658 3.4759 1.91819 3.47588 2.27694 3.83463L4.19386 5.75155C4.73195 6.28963 4.73195 7.16207 4.19386 7.70016L3.89396 8.00006C3.65324 8.24136 3.34871 8.40905 3.01609 8.48346C3.0032 9.17799 3.13017 9.96977 3.61076 10.6249Z" fill="#19AE1D"/>
</svg>
