<svg width="24" height="24" viewBox="0 0 24 24" fill="none" xmlns="http://www.w3.org/2000/svg">
<mask id="path-1-inside-1" fill="white">
<path fill-rule="evenodd" clip-rule="evenodd" d="M9.47019 7C9.49891 7 9.52751 7.00048 9.55599 7.00142C9.72641 6.66907 9.92975 6.35638 10.1617 6.06757C9.93809 6.02325 9.70687 6 9.47019 6C7.52697 6 5.95167 7.567 5.95167 9.5C5.95167 10.6176 6.4783 11.6129 7.29817 12.2537C7.73863 12.598 8.26373 12.8399 8.83728 12.9435C9.1085 12.7068 9.40034 12.4862 9.71412 12.2848C9.65882 12.1911 9.60622 12.0957 9.55643 11.9986C9.5278 11.9995 9.49905 12 9.47019 12C8.07597 12 6.95281 10.8768 6.95281 9.5C6.95281 8.12319 8.07597 7 9.47019 7ZM7.11948 13.3441C7.60377 13.1875 8.14143 13.0795 8.7396 13.0303C8.36422 13.3694 8.02952 13.7398 7.73179 14.1324C7.70847 14.1632 7.68575 14.1941 7.66363 14.2251C6.4823 14.5479 5.69378 15.1875 5.12027 15.9438C4.96108 16.1537 4.96743 16.3531 5.10331 16.5592C5.25937 16.7961 5.58128 17 5.98069 17H7.08696C7.16545 17.3529 7.29706 17.6904 7.47257 18H5.98069C4.51022 18 3.43437 16.5109 4.32222 15.34C4.98222 14.4696 5.87441 13.7465 7.11948 13.3441ZM17.994 9.5C17.994 11.433 16.4187 13 14.4755 13C12.5322 13 10.957 11.433 10.957 9.5C10.957 7.567 12.5322 6 14.4755 6C16.4187 6 17.994 7.567 17.994 9.5ZM9.32773 15.3397C10.3485 13.9938 11.9245 13 14.5021 13C17.0798 13 18.6561 13.9939 19.6771 15.3398C20.5649 16.5103 19.4904 18 18.0213 18L10.9837 18C9.51454 18 8.43999 16.5103 9.32773 15.3397Z"/>
</mask>
<path fill-rule="evenodd" clip-rule="evenodd" d="M9.47019 7C9.49891 7 9.52751 7.00048 9.55599 7.00142C9.72641 6.66907 9.92975 6.35638 10.1617 6.06757C9.93809 6.02325 9.70687 6 9.47019 6C7.52697 6 5.95167 7.567 5.95167 9.5C5.95167 10.6176 6.4783 11.6129 7.29817 12.2537C7.73863 12.598 8.26373 12.8399 8.83728 12.9435C9.1085 12.7068 9.40034 12.4862 9.71412 12.2848C9.65882 12.1911 9.60622 12.0957 9.55643 11.9986C9.5278 11.9995 9.49905 12 9.47019 12C8.07597 12 6.95281 10.8768 6.95281 9.5C6.95281 8.12319 8.07597 7 9.47019 7ZM7.11948 13.3441C7.60377 13.1875 8.14143 13.0795 8.7396 13.0303C8.36422 13.3694 8.02952 13.7398 7.73179 14.1324C7.70847 14.1632 7.68575 14.1941 7.66363 14.2251C6.4823 14.5479 5.69378 15.1875 5.12027 15.9438C4.96108 16.1537 4.96743 16.3531 5.10331 16.5592C5.25937 16.7961 5.58128 17 5.98069 17H7.08696C7.16545 17.3529 7.29706 17.6904 7.47257 18H5.98069C4.51022 18 3.43437 16.5109 4.32222 15.34C4.98222 14.4696 5.87441 13.7465 7.11948 13.3441ZM17.994 9.5C17.994 11.433 16.4187 13 14.4755 13C12.5322 13 10.957 11.433 10.957 9.5C10.957 7.567 12.5322 6 14.4755 6C16.4187 6 17.994 7.567 17.994 9.5ZM9.32773 15.3397C10.3485 13.9938 11.9245 13 14.5021 13C17.0798 13 18.6561 13.9939 19.6771 15.3398C20.5649 16.5103 19.4904 18 18.0213 18L10.9837 18C9.51454 18 8.43999 16.5103 9.32773 15.3397Z" fill="white"/>
<path d="M9.55599 7.00142L9.52281 8.00087L10.1565 8.02191L10.4458 7.4577L9.55599 7.00142ZM10.1617 6.06757L10.9414 6.69371L11.9743 5.40744L10.3561 5.08666L10.1617 6.06757ZM7.29817 12.2537L6.68238 13.0416H6.68238L7.29817 12.2537ZM8.83728 12.9435L8.65948 13.9276L9.13261 14.0131L9.49484 13.6969L8.83728 12.9435ZM9.71412 12.2848L10.2542 13.1264L11.065 12.606L10.5752 11.7764L9.71412 12.2848ZM9.55643 11.9986L10.4463 11.5424L10.157 10.978L9.52308 10.9991L9.55643 11.9986ZM8.7396 13.0303L9.41001 13.7723L11.6027 11.7911L8.65751 12.0337L8.7396 13.0303ZM7.11948 13.3441L7.42703 14.2956L7.11948 13.3441ZM7.73179 14.1324L8.5286 14.7367L8.5286 14.7367L7.73179 14.1324ZM7.66363 14.2251L7.92722 15.1897L8.27097 15.0958L8.47785 14.8057L7.66363 14.2251ZM5.12027 15.9438L4.32346 15.3396L4.32345 15.3396L5.12027 15.9438ZM5.10331 16.5592L4.26832 17.1095L4.26832 17.1095L5.10331 16.5592ZM7.08696 17L8.06311 16.7829L7.88898 16H7.08696V17ZM7.47257 18V19H9.18889L8.34253 17.5069L7.47257 18ZM4.32222 15.34L3.5254 14.7358L3.5254 14.7358L4.32222 15.34ZM14.5021 13V12V13ZM9.32773 15.3397L8.53095 14.7354H8.53095L9.32773 15.3397ZM19.6771 15.3398L18.8803 15.9441V15.9441L19.6771 15.3398ZM18.0213 18V17V18ZM10.9837 18V19V18ZM9.58917 6.00197C9.54964 6.00066 9.50997 6 9.47019 6V8C9.48784 8 9.50539 8.00029 9.52281 8.00087L9.58917 6.00197ZM9.38196 5.44143C9.10809 5.78249 8.86774 6.15202 8.66616 6.54515L10.4458 7.4577C10.5851 7.18613 10.7514 6.93028 10.9414 6.69371L9.38196 5.44143ZM9.47019 7C9.64124 7 9.80734 7.01679 9.96723 7.04848L10.3561 5.08666C10.0688 5.02971 9.7725 5 9.47019 5V7ZM6.95167 9.5C6.95167 8.12426 8.07427 7 9.47019 7V5C6.97966 5 4.95167 7.00975 4.95167 9.5H6.95167ZM7.91397 11.4658C7.32518 11.0056 6.95167 10.2957 6.95167 9.5H4.95167C4.95167 10.9396 5.63141 12.2202 6.68238 13.0416L7.91397 11.4658ZM9.01509 11.9595C8.60523 11.8854 8.22971 11.7126 7.91397 11.4658L6.68238 13.0416C7.24756 13.4833 7.92224 13.7944 8.65948 13.9276L9.01509 11.9595ZM9.17401 11.4432C8.81787 11.6718 8.48687 11.922 8.17973 12.1901L9.49484 13.6969C9.73013 13.4916 9.98281 13.3006 10.2542 13.1264L9.17401 11.4432ZM8.66655 12.4548C8.72544 12.5696 8.78763 12.6825 8.85299 12.7932L10.5752 11.7764C10.53 11.6998 10.487 11.6218 10.4463 11.5424L8.66655 12.4548ZM9.47019 13C9.51018 13 9.55004 12.9993 9.58977 12.998L9.52308 10.9991C9.50556 10.9997 9.48793 11 9.47019 11V13ZM5.95281 9.5C5.95281 11.4336 7.52819 13 9.47019 13V11C8.62374 11 7.95281 10.32 7.95281 9.5H5.95281ZM9.47019 6C7.52819 6 5.95281 7.5664 5.95281 9.5H7.95281C7.95281 8.67997 8.62374 8 9.47019 8V6ZM8.65751 12.0337C7.98865 12.0887 7.37484 12.2106 6.81193 12.3925L7.42703 14.2956C7.83269 14.1645 8.29422 14.0703 8.82168 14.0269L8.65751 12.0337ZM8.5286 14.7367C8.79119 14.3904 9.08407 14.0668 9.41001 13.7723L8.06918 12.2883C7.64437 12.6721 7.26784 13.0893 6.93497 13.5282L8.5286 14.7367ZM8.47785 14.8057C8.49426 14.7826 8.51117 14.7596 8.5286 14.7367L6.93498 13.5282C6.90576 13.5667 6.87724 13.6055 6.84941 13.6445L8.47785 14.8057ZM5.91708 16.548C6.37636 15.9424 6.98685 15.4467 7.92722 15.1897L7.40005 13.2605C5.97774 13.6491 5.0112 14.4326 4.32346 15.3396L5.91708 16.548ZM5.9383 16.009C5.94692 16.0221 6.00303 16.1145 6.00105 16.2659C5.999 16.4235 5.93598 16.5231 5.91708 16.548L4.32345 15.3396C4.14537 15.5744 4.00593 15.8787 4.00122 16.2399C3.9966 16.5951 4.12382 16.8902 4.26832 17.1095L5.9383 16.009ZM5.98069 16C5.95299 16 5.93465 15.9932 5.92424 15.9876C5.91872 15.9847 5.91685 15.9828 5.91828 15.984C5.91938 15.985 5.92724 15.9922 5.9383 16.009L4.26832 17.1095C4.61007 17.6281 5.24625 18 5.98069 18V16ZM7.08696 16H5.98069V18H7.08696V16ZM8.34253 17.5069C8.21474 17.2814 8.11957 17.0367 8.06311 16.7829L6.11082 17.2171C6.21132 17.669 6.37938 18.0993 6.60261 18.4931L8.34253 17.5069ZM5.98069 19H7.47257V17H5.98069V19ZM3.5254 14.7358C2.7966 15.6969 2.88427 16.8281 3.4321 17.6593C3.95963 18.4598 4.91053 19 5.98069 19V17C5.58039 17 5.25812 16.7956 5.10207 16.5588C4.96632 16.3528 4.95998 16.154 5.11903 15.9442L3.5254 14.7358ZM6.81193 12.3925C5.34905 12.8654 4.29363 13.7227 3.5254 14.7358L5.11903 15.9442C5.67081 15.2166 6.39978 14.6276 7.42703 14.2956L6.81193 12.3925ZM14.4755 14C16.966 14 18.994 11.9902 18.994 9.5H16.994C16.994 10.8757 15.8714 12 14.4755 12V14ZM9.95695 9.5C9.95695 11.9903 11.9849 14 14.4755 14V12C13.0795 12 11.957 10.8757 11.957 9.5H9.95695ZM14.4755 5C11.9849 5 9.95695 7.00975 9.95695 9.5H11.957C11.957 8.12426 13.0795 7 14.4755 7V5ZM18.994 9.5C18.994 7.00975 16.966 5 14.4755 5V7C15.8714 7 16.994 8.12426 16.994 9.5H18.994ZM14.5021 12C11.615 12 9.74278 13.1375 8.53095 14.7354L10.1245 15.944C10.9541 14.8501 12.234 14 14.5021 14V12ZM20.4738 14.7355C19.2618 13.1376 17.3892 12 14.5021 12V14C16.7703 14 18.0505 14.8501 18.8803 15.9441L20.4738 14.7355ZM18.0213 19C19.0914 19 20.0417 18.4592 20.5685 17.6585C21.1154 16.8271 21.2025 15.6961 20.4738 14.7355L18.8803 15.9441C19.0395 16.154 19.0332 16.3531 18.8976 16.5592C18.7419 16.796 18.4204 17 18.0213 17V19ZM10.9837 19L18.0213 19V17L10.9837 17V19ZM8.53095 14.7354C7.80236 15.6961 7.88948 16.8271 8.43647 17.6585C8.96329 18.4592 9.9136 19 10.9837 19V17C10.5846 17 10.2631 16.796 10.1073 16.5592C9.97165 16.353 9.96536 16.1538 10.1245 15.944L8.53095 14.7354Z" fill="black" mask="url(#path-1-inside-1)"/>
</svg>
