<svg width="24" height="24" viewBox="0 0 24 24" fill="none" xmlns="http://www.w3.org/2000/svg">
<path fill-rule="evenodd" clip-rule="evenodd" d="M10.5 5.5C10.5 4.67157 11.1716 4 12 4C12.8284 4 13.5 4.67157 13.5 5.5L13.5 12L15.1781 10.6575C15.7102 10.2319 16.3712 10 17.0526 10.0001L18.5003 10.0003C18.9808 10.0003 19.1846 10.612 18.8002 10.9003L12.0002 15.9998L12.0001 16L12 15.9999L11.9999 16L11.9998 15.9998L5.2 10.9C4.81559 10.6117 5.01948 10 5.49999 10L6.94763 10C7.62885 10 8.28978 10.2318 8.82172 10.6574L10.5 12L10.5 5.5Z" fill="#868DF3"/>
<rect x="5" y="17" width="14" height="3" rx="1.5" fill="#868DF3"/>
</svg>
