<svg width="16" height="16" viewBox="0 0 16 16" fill="none" xmlns="http://www.w3.org/2000/svg">
<path d="M12.198 9.9982C11.9408 10.4431 11.9669 11.0186 12.334 11.3782L14.0187 13.0285C14.2837 13.2881 14.2859 13.7141 14.0235 13.9765C13.7649 14.2351 13.3463 14.2372 13.0851 13.9812L11.3781 12.3081C11.0166 11.9539 10.4514 11.9341 10.0141 12.1888C9.10359 12.7189 8.06407 13.0015 7 13C3.688 13 1 10.312 1 7C1 3.688 3.688 1 7 1C10.312 1 13 3.688 13 7C13.0015 8.05789 12.7222 9.09151 12.198 9.9982ZM10.35 10.25C11.1961 9.37992 11.6686 8.21362 11.6667 7C11.6667 4.42133 9.578 2.33333 7 2.33333C4.42133 2.33333 2.33333 4.42133 2.33333 7C2.33333 9.578 4.42133 11.6667 7 11.6667C8.21362 11.6686 9.37992 11.1961 10.25 10.35L10.35 10.25Z" fill="#5A5EF8"/>
</svg>
