<svg width="27" height="24" viewBox="0 0 27 24" fill="none" xmlns="http://www.w3.org/2000/svg">
<mask id="path-1-outside-1" maskUnits="userSpaceOnUse" x="-0.000915527" y="2" width="19" height="19" fill="black">
<rect fill="white" x="-0.000915527" y="2" width="19" height="19"/>
<path fill-rule="evenodd" clip-rule="evenodd" d="M9.99663 12C12.2071 12 13.9991 10.2091 13.9991 8C13.9991 5.79086 12.2071 4 9.99663 4C7.78611 4 5.99413 5.79086 5.99413 8C5.99413 10.2091 7.78611 12 9.99663 12ZM9.99658 13C6.43599 13 4.44996 14.5194 3.24004 16.477C2.52223 17.6383 3.50869 19 4.87396 19L15.1201 19C16.4854 19 17.4718 17.6383 16.7539 16.4771C15.5437 14.5195 13.5572 13 9.99658 13Z"/>
</mask>
<path fill-rule="evenodd" clip-rule="evenodd" d="M9.99663 12C12.2071 12 13.9991 10.2091 13.9991 8C13.9991 5.79086 12.2071 4 9.99663 4C7.78611 4 5.99413 5.79086 5.99413 8C5.99413 10.2091 7.78611 12 9.99663 12ZM9.99658 13C6.43599 13 4.44996 14.5194 3.24004 16.477C2.52223 17.6383 3.50869 19 4.87396 19L15.1201 19C16.4854 19 17.4718 17.6383 16.7539 16.4771C15.5437 14.5195 13.5572 13 9.99658 13Z" fill="#262626"/>
<path d="M3.24004 16.477L1.53878 15.4255L1.53878 15.4255L3.24004 16.477ZM9.99658 13V15H9.99658L9.99658 13ZM4.87396 19V21L4.87396 21L4.87396 19ZM15.1201 19V17V19ZM16.7539 16.4771L18.4551 15.4254L16.7539 16.4771ZM11.9991 8C11.9991 9.10339 11.1038 10 9.99663 10V14C13.3105 14 15.9991 11.3149 15.9991 8H11.9991ZM9.99663 6C11.1038 6 11.9991 6.89661 11.9991 8H15.9991C15.9991 4.68512 13.3105 2 9.99663 2V6ZM7.99413 8C7.99413 6.89661 8.8895 6 9.99663 6V2C6.68272 2 3.99413 4.68512 3.99413 8H7.99413ZM9.99663 10C8.8895 10 7.99413 9.10339 7.99413 8H3.99413C3.99413 11.3149 6.68272 14 9.99663 14V10ZM4.9413 17.5285C5.40739 16.7744 5.98103 16.1684 6.72919 15.7408C7.4755 15.3143 8.50954 15 9.99658 15V11C7.92303 11 6.18377 11.4454 4.74443 12.268C3.30695 13.0895 2.28261 14.222 1.53878 15.4255L4.9413 17.5285ZM4.87396 17C4.8606 17 4.89212 16.9936 4.9339 17.0556C4.95853 17.0921 4.99382 17.1653 4.99857 17.2728C5.00377 17.3904 4.96901 17.4837 4.94131 17.5285L1.53878 15.4255C0.726649 16.7394 0.894434 18.22 1.61779 19.2924C2.31466 20.3255 3.52205 21 4.87396 21V17ZM15.1201 17L4.87396 17L4.87396 21H15.1201V17ZM15.0527 17.5287C15.025 17.4839 14.9902 17.3906 14.9954 17.2729C15.0002 17.1654 15.0355 17.0922 15.0601 17.0556C15.1019 16.9936 15.1335 17 15.1201 17V21C16.472 21 17.6794 20.3255 18.3763 19.2924C19.0997 18.22 19.2673 16.7393 18.4551 15.4254L15.0527 17.5287ZM9.99658 15C11.4836 15 12.5179 15.3143 13.2644 15.7409C14.0127 16.1686 14.5866 16.7746 15.0527 17.5287L18.4551 15.4254C17.7111 14.2219 16.6865 13.0894 15.249 12.268C13.8095 11.4454 12.0702 11 9.99658 11L9.99658 15Z" fill="white" mask="url(#path-1-outside-1)"/>
<mask id="path-3-outside-2" maskUnits="userSpaceOnUse" x="7.00299" y="2" width="19" height="19" fill="black">
<rect fill="white" x="7.00299" y="2" width="19" height="19"/>
<path fill-rule="evenodd" clip-rule="evenodd" d="M17.0001 12C19.2106 12 21.0026 10.2091 21.0026 8C21.0026 5.79086 19.2106 4 17.0001 4C14.7896 4 12.9976 5.79086 12.9976 8C12.9976 10.2091 14.7896 12 17.0001 12ZM17.0005 13C13.4399 13 11.4539 14.5194 10.2439 16.477C9.52614 17.6383 10.5126 19 11.8779 19L22.124 19C23.4893 19 24.4757 17.6383 23.7578 16.4771C22.5476 14.5195 20.5611 13 17.0005 13Z"/>
</mask>
<path fill-rule="evenodd" clip-rule="evenodd" d="M17.0001 12C19.2106 12 21.0026 10.2091 21.0026 8C21.0026 5.79086 19.2106 4 17.0001 4C14.7896 4 12.9976 5.79086 12.9976 8C12.9976 10.2091 14.7896 12 17.0001 12ZM17.0005 13C13.4399 13 11.4539 14.5194 10.2439 16.477C9.52614 17.6383 10.5126 19 11.8779 19L22.124 19C23.4893 19 24.4757 17.6383 23.7578 16.4771C22.5476 14.5195 20.5611 13 17.0005 13Z" fill="#262626"/>
<path d="M10.2439 16.477L8.54268 15.4255L8.54268 15.4255L10.2439 16.477ZM17.0005 13V15H17.0005L17.0005 13ZM11.8779 19V21L11.8779 21L11.8779 19ZM22.124 19V17V19ZM23.7578 16.4771L25.459 15.4254L23.7578 16.4771ZM19.0026 8C19.0026 9.10339 18.1072 10 17.0001 10V14C20.314 14 23.0026 11.3149 23.0026 8H19.0026ZM17.0001 6C18.1072 6 19.0026 6.89661 19.0026 8H23.0026C23.0026 4.68511 20.314 2 17.0001 2V6ZM14.9976 8C14.9976 6.89661 15.893 6 17.0001 6V2C13.6862 2 10.9976 4.68512 10.9976 8H14.9976ZM17.0001 10C15.893 10 14.9976 9.10339 14.9976 8H10.9976C10.9976 11.3149 13.6862 14 17.0001 14V10ZM11.9452 17.5285C12.4113 16.7744 12.9849 16.1684 13.7331 15.7408C14.4794 15.3143 15.5134 15 17.0005 15V11C14.9269 11 13.1877 11.4454 11.7483 12.268C10.3109 13.0895 9.28652 14.222 8.54268 15.4255L11.9452 17.5285ZM11.8779 17C11.8645 17 11.896 16.9936 11.9378 17.0556C11.9624 17.0921 11.9977 17.1653 12.0025 17.2728C12.0077 17.3904 11.9729 17.4837 11.9452 17.5285L8.54268 15.4255C7.73056 16.7394 7.89834 18.22 8.6217 19.2924C9.31857 20.3255 10.526 21 11.8779 21V17ZM22.124 17L11.8779 17L11.8779 21H22.124V17ZM22.0566 17.5287C22.0289 17.4839 21.9942 17.3906 21.9993 17.2729C22.0041 17.1654 22.0394 17.0922 22.064 17.0556C22.1059 16.9936 22.1374 17 22.124 17V21C23.4759 21 24.6833 20.3255 25.3802 19.2924C26.1036 18.22 26.2713 16.7393 25.459 15.4254L22.0566 17.5287ZM17.0005 15C18.4876 15 19.5218 15.3143 20.2683 15.7409C21.0167 16.1686 21.5905 16.7746 22.0566 17.5287L25.459 15.4254C24.715 14.2219 23.6905 13.0894 22.2529 12.268C20.8134 11.4454 19.0741 11 17.0005 11L17.0005 15Z" fill="white" mask="url(#path-3-outside-2)"/>
</svg>
