<svg width="17" height="16" viewBox="0 0 17 16" fill="none" xmlns="http://www.w3.org/2000/svg">
<path d="M14.5559 7L14.5559 1.5M14.5559 1.5L9.23191 1.5M14.5559 1.5L8.74791 7.5" stroke="#256EFF" stroke-width="1.35"/>
<path d="M4.01502 10.6249C4.25997 10.9506 4.52436 11.2603 4.80666 11.552C5.13857 11.8949 5.49472 12.2118 5.87216 12.5001C6.47703 12.9011 7.18508 13.0096 7.81157 12.9975C7.88384 12.6657 8.04597 12.362 8.27905 12.1218L8.56935 11.8219C9.09022 11.2838 9.93474 11.2838 10.4556 11.8219L12.3112 13.7388C12.6584 14.0976 12.6585 14.6792 12.3112 15.0379L11.9926 15.3671C11.5058 15.8699 10.6838 16 10.2097 16C8.2638 16 6.48248 15.3872 4.77141 14.0828C4.70136 14.0341 4.63263 13.9833 4.5653 13.9307L4.56938 13.9251C4.1842 13.6173 3.81832 13.2845 3.47396 12.9287C3.13869 12.5824 2.82651 12.2162 2.53941 11.8356L2.53819 11.8365C2.52499 11.8186 2.5125 11.8004 2.49962 11.7824C1.94055 11.0323 1.48046 10.2268 1.14482 9.40177C0.63108 8.13883 0.519382 7 0.519382 5.68817C0.519382 5 0.739314 4.58571 1.14773 4.16378L1.46636 3.83463C1.8136 3.4759 2.37661 3.47588 2.72388 3.83463L4.57946 5.75155C5.10032 6.28963 5.10032 7.16207 4.57946 7.70016L4.28915 8.00006C4.05613 8.24136 3.76135 8.40905 3.43937 8.48345C3.4269 9.17799 3.54981 9.96977 4.01502 10.6249Z" fill="#256EFF"/>
</svg>
