<svg width="17" height="16" viewBox="0 0 17 16" fill="none" xmlns="http://www.w3.org/2000/svg">
<path d="M9.4081 12.0249C8.99883 11.9735 8.41249 11.9471 8 11.947C7.51509 11.947 6.97768 11.9828 6.49812 12.0546C5.77272 12.2129 5.17878 12.6534 4.72966 13.1196C4.91149 13.407 5.00782 13.7402 5.00741 14.0803L5.00741 14.5044C5.00741 15.2654 4.3905 15.8823 3.62953 15.8823L0.918594 15.8823C0.411281 15.8823 -2.39146e-07 15.471 -2.1697e-07 14.9637L-1.96622e-07 14.4982C-1.65539e-07 13.7871 0.50848 13.0946 0.854813 12.7483C2.27625 11.3268 4.01078 10.4589 6.18303 10.1314C6.26867 10.1147 6.35476 10.1003 6.44119 10.0884L6.44213 10.0953C6.94117 10.0316 7.49691 10 8 10C8.48981 10 9.15107 10.0315 9.62991 10.0909L9.63013 10.0893C9.65248 10.0924 9.67445 10.0961 9.6966 10.0994C10.6354 10.2214 11.541 10.4549 12.3696 10.7931C13.6379 11.3109 14.5248 12.0345 15.4524 12.9621C15.939 13.4488 16.0713 13.9024 16.0713 14.4991L16.0713 14.9646C16.0713 15.4719 15.66 15.8831 15.1527 15.8831L12.4418 15.8831C11.6808 15.8831 11.0639 15.2662 11.0639 14.5053L11.0639 14.0811C11.0635 13.7403 11.1602 13.4064 11.3428 13.1186C10.8608 12.6184 10.2112 12.1483 9.4081 12.0249Z" fill="#FF0080"/>
<path d="M14 7.5L14 2M14 2L8.5 2M14 2L8 8L3 3" stroke="#FF007F" stroke-width="1.35"/>
</svg>
