<svg width="24" height="24" viewBox="0 0 24 24" fill="none" xmlns="http://www.w3.org/2000/svg">
<path d="M8.61707 13.2448C8.93881 13.6589 9.28608 14.0526 9.65687 14.4235C10.0928 14.8595 10.5606 15.2624 11.0564 15.6289C11.8508 16.1388 12.7808 16.2768 13.6037 16.2614C13.6986 15.8396 13.9116 15.4534 14.2177 15.148L14.599 14.7667C15.2832 14.0826 16.3924 14.0826 17.0766 14.7667L19.5138 17.204C19.9699 17.66 19.97 18.3995 19.5138 18.8557L19.0953 19.2742C18.456 19.9135 17.3763 20.0789 16.7536 20.0789C14.1977 20.0789 11.858 19.2998 9.61057 17.6413C9.51856 17.5793 9.42828 17.5148 9.33985 17.4478L9.34521 17.4408C8.83928 17.0494 8.35871 16.6263 7.90641 16.174C7.46605 15.7336 7.056 15.268 6.67891 14.7841L6.6773 14.7853C6.65997 14.7625 6.64356 14.7394 6.62665 14.7164C5.89233 13.7628 5.288 12.7387 4.84716 11.6896C4.17238 10.0839 4.02566 8.63595 4.02566 6.96804C4.02566 6.09307 4.31454 5.56632 4.85098 5.02988L5.26949 4.61137C5.72558 4.15528 6.46507 4.15525 6.9212 4.61137L9.35845 7.04862C10.0426 7.73276 10.0426 8.84201 9.35845 9.52616L8.97714 9.90746C8.67107 10.2143 8.28389 10.4275 7.86098 10.5221C7.8446 11.4051 8.00603 12.4118 8.61707 13.2448Z" fill="url(#paint0_linear)"/>
<defs>
<linearGradient id="paint0_linear" x1="1.50425" y1="9.39406" x2="13.1715" y2="3.73306" gradientUnits="userSpaceOnUse">
<stop stop-color="#8793E4"/>
<stop offset="1" stop-color="#6857FF"/>
</linearGradient>
</defs>
</svg>
