<svg width="10" height="12" viewBox="0 0 10 12" fill="none" xmlns="http://www.w3.org/2000/svg">
<path fill-rule="evenodd" clip-rule="evenodd" d="M4.99999 0C4.44771 0 3.99999 0.447714 3.99999 0.999999V7.71773C3.99999 8.16795 3.45155 8.38882 3.13954 8.06425L1.72091 6.58853C1.33816 6.19038 0.705122 6.1779 0.306973 6.56065C-0.091176 6.9434 -0.103662 7.57644 0.279086 7.97459L3.55817 11.3856C4.34511 12.2042 5.65489 12.2042 6.44182 11.3856L9.72091 7.97459C10.1037 7.57644 10.0912 6.9434 9.69302 6.56065C9.29488 6.1779 8.66183 6.19038 8.27909 6.58853L6.86045 8.06425C6.54844 8.38882 5.99999 8.16796 5.99999 7.71774V1C5.99999 0.447715 5.55228 0 4.99999 0Z" fill="url(#paint0_linear)"/>
<defs>
<linearGradient id="paint0_linear" x1="9.64286" y1="1.42728" x2="-0.994939" y2="10.4852" gradientUnits="userSpaceOnUse">
<stop stop-color="#7E8CE6"/>
<stop offset="1" stop-color="#4D4DFF"/>
</linearGradient>
</defs>
</svg>
