<svg width="24" height="24" viewBox="0 0 24 24" fill="none" xmlns="http://www.w3.org/2000/svg">
<path d="M5.15109 13.3261L12.0451 6.43205C12.678 5.79911 13.5365 5.44353 14.4316 5.44353C15.3267 5.44353 16.1852 5.79911 16.8181 6.43205C17.451 7.06499 17.8066 7.92344 17.8066 8.81855C17.8066 9.71366 17.451 10.5721 16.8181 11.2051L8.86509 19.1596C8.7621 19.2701 8.6379 19.3587 8.4999 19.4202C8.3619 19.4817 8.21293 19.5148 8.06187 19.5174C7.91082 19.5201 7.76078 19.4923 7.62069 19.4357C7.48061 19.3792 7.35336 19.2949 7.24653 19.1881C7.13971 19.0813 7.05549 18.954 6.99891 18.8139C6.94233 18.6739 6.91454 18.5238 6.9172 18.3728C6.91987 18.2217 6.95293 18.0727 7.01442 17.9347C7.07591 17.7967 7.16456 17.6725 7.27509 17.5696L15.2296 9.61355C15.4402 9.40211 15.5583 9.11565 15.5577 8.81718C15.5571 8.51872 15.438 8.2327 15.2266 8.02205C15.0151 7.81141 14.7287 7.69338 14.4302 7.69394C14.1318 7.69451 13.8457 7.81361 13.6351 8.02505L5.68059 15.9796C5.04765 16.6125 4.69207 17.4709 4.69207 18.3661C4.69207 19.2612 5.04765 20.1196 5.68059 20.7526C6.31353 21.3855 7.17198 21.7411 8.06709 21.7411C8.9622 21.7411 9.82065 21.3855 10.4536 20.7526L18.4081 12.7981C18.9306 12.2759 19.3451 11.6558 19.628 10.9734C19.9109 10.291 20.0566 9.55961 20.0568 8.82089C20.057 8.08218 19.9117 7.35066 19.6292 6.6681C19.3467 5.98554 18.9325 5.3653 18.4103 4.8428C17.8881 4.32031 17.2681 3.90578 16.5857 3.62289C15.9033 3.34001 15.1719 3.1943 14.4332 3.19409C12.9413 3.19367 11.5103 3.78592 10.4551 4.84055L3.55959 11.7346C3.34854 11.9456 3.22998 12.2318 3.22998 12.5303C3.22998 12.8288 3.34854 13.115 3.55959 13.3261C3.77064 13.5371 4.05688 13.6557 4.35534 13.6557C4.65381 13.6557 4.94004 13.5371 5.15109 13.3261Z" fill="url(#paint0_linear)"/>
<defs>
<linearGradient id="paint0_linear" x1="3.22998" y1="2.02554" x2="22.0617" y2="18.9605" gradientUnits="userSpaceOnUse">
<stop stop-color="#B8BACC"/>
<stop offset="1" stop-color="#B7BEE8"/>
</linearGradient>
</defs>
</svg>
