<svg width="24" height="24" viewBox="0 0 24 24" fill="none" xmlns="http://www.w3.org/2000/svg">
<path fill-rule="evenodd" clip-rule="evenodd" d="M16 11C16 13.7614 13.7614 16 11 16C8.23858 16 6 13.7614 6 11C6 8.23858 8.23858 6 11 6C13.7614 6 16 8.23858 16 11ZM15.805 17.2192C15.4533 16.8675 14.9 16.835 14.4682 17.0818C13.4458 17.6661 12.2619 18 11 18C7.13401 18 4 14.866 4 11C4 7.13401 7.13401 4 11 4C14.866 4 18 7.13401 18 11C18 12.2619 17.6661 13.4458 17.0818 14.4682C16.835 14.9 16.8675 15.4533 17.2192 15.805L19.7071 18.2929C20.0976 18.6834 20.0976 19.3166 19.7071 19.7071C19.3166 20.0976 18.6834 20.0976 18.2929 19.7071L15.805 17.2192Z" fill="#5A5EF8"/>
</svg>
