<svg width="32" height="32" viewBox="0 0 32 32" fill="none" xmlns="http://www.w3.org/2000/svg">
<path d="M0.5 8C0.5 3.85786 3.85786 0.5 8 0.5H24C28.1421 0.5 31.5 3.85786 31.5 8V24C31.5 28.1421 28.1421 31.5 24 31.5H8C3.85786 31.5 0.5 28.1421 0.5 24V8Z" stroke="#5D72FA" stroke-opacity="0.2"/>
<path d="M20.198 17.9982C19.9408 18.4431 19.9669 19.0186 20.334 19.3782L22.0187 21.0285C22.2837 21.2881 22.2859 21.7141 22.0235 21.9765C21.7649 22.2351 21.3463 22.2372 21.0851 21.9812L19.3781 20.3081C19.0166 19.9539 18.4514 19.9341 18.0141 20.1888C17.1036 20.7189 16.0641 21.0015 15 21C11.688 21 9 18.312 9 15C9 11.688 11.688 9 15 9C18.312 9 21 11.688 21 15C21.0015 16.0579 20.7222 17.0915 20.198 17.9982ZM18.35 18.25C19.1961 17.3799 19.6686 16.2136 19.6667 15C19.6667 12.4213 17.578 10.3333 15 10.3333C12.4213 10.3333 10.3333 12.4213 10.3333 15C10.3333 17.578 12.4213 19.6667 15 19.6667C16.2136 19.6686 17.3799 19.1961 18.25 18.35L18.35 18.25Z" fill="url(#paint0_linear)"/>
<defs>
<linearGradient id="paint0_linear" x1="9.48214" y1="9.48012" x2="22.6671" y2="21.8409" gradientUnits="userSpaceOnUse">
<stop stop-color="#AA4FF2"/>
<stop offset="1" stop-color="#497CFF"/>
</linearGradient>
</defs>
</svg>
