<svg width="24" height="24" viewBox="0 0 24 24" fill="none" xmlns="http://www.w3.org/2000/svg">
<path d="M12 3C13.1819 3 14.3522 3.23279 15.4442 3.68508C16.5361 4.13738 17.5282 4.80031 18.364 5.63604C19.1997 6.47177 19.8626 7.46392 20.3149 8.55585C20.7672 9.64778 21 10.8181 21 12C21 13.1819 20.7672 14.3522 20.3149 15.4442C19.8626 16.5361 19.1997 17.5282 18.364 18.364C17.5282 19.1997 16.5361 19.8626 15.4442 20.3149C14.3522 20.7672 13.1819 21 12 21C9.61305 21 7.32387 20.0518 5.63604 18.364C3.94821 16.6761 3 14.3869 3 12C3 9.61305 3.94821 7.32387 5.63604 5.63604C7.32387 3.94821 9.61305 3 12 3V3Z" stroke="url(#paint0_linear)" stroke-width="2" stroke-linecap="round"/>
<path d="M8 14C8.5 15.5 9.79 17 12 17C14.21 17 15.5 15.5 16 14" stroke="url(#paint1_linear)" stroke-width="2" stroke-linecap="round"/>
<path d="M9 11C9.55228 11 10 10.3284 10 9.5C10 8.67157 9.55228 8 9 8C8.44772 8 8 8.67157 8 9.5C8 10.3284 8.44772 11 9 11Z" fill="url(#paint2_linear)"/>
<path d="M15 11C15.5523 11 16 10.3284 16 9.5C16 8.67157 15.5523 8 15 8C14.4477 8 14 8.67157 14 9.5C14 10.3284 14.4477 11 15 11Z" fill="url(#paint3_linear)"/>
<defs>
<linearGradient id="paint0_linear" x1="3" y1="1.86591" x2="21.3787" y2="20.083" gradientUnits="userSpaceOnUse">
<stop stop-color="#B8BACC"/>
<stop offset="1" stop-color="#B7BEE8"/>
</linearGradient>
<linearGradient id="paint1_linear" x1="8" y1="13.811" x2="10.0276" y2="19.1704" gradientUnits="userSpaceOnUse">
<stop stop-color="#B8BACC"/>
<stop offset="1" stop-color="#B7BEE8"/>
</linearGradient>
<linearGradient id="paint2_linear" x1="8" y1="7.81099" x2="10.8179" y2="9.67308" gradientUnits="userSpaceOnUse">
<stop stop-color="#B8BACC"/>
<stop offset="1" stop-color="#B7BEE8"/>
</linearGradient>
<linearGradient id="paint3_linear" x1="14" y1="7.81099" x2="16.8179" y2="9.67308" gradientUnits="userSpaceOnUse">
<stop stop-color="#B8BACC"/>
<stop offset="1" stop-color="#B7BEE8"/>
</linearGradient>
</defs>
</svg>
